<?xml version="1.0" encoding="utf-8"?><!-- Uploaded to: SVG Repo, www.svgrepo.com, Generator: SVG Repo Mixer Tools -->
<svg fill="#000000" width="800px" height="800px" viewBox="0 0 24 24" id="pull-up-bar-2" data-name="Flat Color" xmlns="http://www.w3.org/2000/svg" class="icon flat-color"><path id="primary" d="M12,21a1,1,0,0,1-1-1V4a1,1,0,0,1,2,0V20A1,1,0,0,1,12,21ZM5,20V4A1,1,0,0,0,3,4V20a1,1,0,0,0,2,0Zm16,0V8a1,1,0,0,0-2,0V20a1,1,0,0,0,2,0Z" style="fill: rgb(0, 0, 0);"></path><path id="secondary" d="M13,21H11a1,1,0,0,1,0-2h2a1,1,0,0,1,0,2Zm9-1a1,1,0,0,0-1-1H19a1,1,0,0,0,0,2h2A1,1,0,0,0,22,20ZM6,20a1,1,0,0,0-1-1H3a1,1,0,0,0,0,2H5A1,1,0,0,0,6,20ZM22,8a1,1,0,0,0-1-1H12a1,1,0,0,0,0,2h9A1,1,0,0,0,22,8ZM14,4a1,1,0,0,0-1-1H3A1,1,0,0,0,3,5H13A1,1,0,0,0,14,4Z" style="fill: rgb(44, 169, 188);"></path></svg>